<svg id="Capa_1" enable-background="new 0 0 511.84 511.84" height="512" viewBox="0 0 511.84 511.84" width="512" xmlns="http://www.w3.org/2000/svg"><g><path d="m492.34 57.49h-472.84c-10.752 0-19.5 8.747-19.5 19.5v357.86c0 10.752 8.748 19.5 19.5 19.5h16.66c4.143 0 7.5-3.358 7.5-7.5s-3.357-7.5-7.5-7.5h-16.66c-2.481 0-4.5-2.019-4.5-4.5v-304.001h481.84v15.851c0 4.142 3.357 7.5 7.5 7.5s7.5-3.358 7.5-7.5v-69.71c0-10.753-8.748-19.5-19.5-19.5zm-477.34 58.359v-38.859c0-2.481 2.019-4.5 4.5-4.5h472.84c2.481 0 4.5 2.019 4.5 4.5v38.859z"/><path d="m504.34 174.2c-4.143 0-7.5 3.358-7.5 7.5v253.15c0 2.481-2.019 4.5-4.5 4.5h-421.18c-4.143 0-7.5 3.358-7.5 7.5s3.357 7.5 7.5 7.5h421.18c10.752 0 19.5-8.748 19.5-19.5v-253.15c0-4.142-3.358-7.5-7.5-7.5z"/><path d="m313.36 86.67h-262.87c-4.143 0-7.5 3.358-7.5 7.5s3.357 7.5 7.5 7.5h262.87c4.143 0 7.5-3.358 7.5-7.5s-3.357-7.5-7.5-7.5z"/><path d="m461.35 86.67h-3.392c-4.143 0-7.5 3.358-7.5 7.5s3.357 7.5 7.5 7.5h3.392c4.143 0 7.5-3.358 7.5-7.5s-3.358-7.5-7.5-7.5z"/><path d="m432.958 86.67h-3.392c-4.143 0-7.5 3.358-7.5 7.5s3.357 7.5 7.5 7.5h3.392c4.143 0 7.5-3.358 7.5-7.5s-3.357-7.5-7.5-7.5z"/><path d="m404.566 86.67h-3.391c-4.143 0-7.5 3.358-7.5 7.5s3.357 7.5 7.5 7.5h3.391c4.143 0 7.5-3.358 7.5-7.5s-3.357-7.5-7.5-7.5z"/><path d="m208.136 345.928h10.5c5.238 0 9.5-4.262 9.5-9.5v-9.5c0-4.142-3.357-7.5-7.5-7.5s-7.5 3.358-7.5 7.5v4h-5c-4.143 0-7.5 3.358-7.5 7.5s3.357 7.5 7.5 7.5z"/><path d="m177.711 330.928h-25.354c-4.143 0-7.5 3.358-7.5 7.5s3.357 7.5 7.5 7.5h25.354c4.143 0 7.5-3.358 7.5-7.5s-3.357-7.5-7.5-7.5z"/><path d="m96.579 345.928h25.354c4.143 0 7.5-3.358 7.5-7.5s-3.357-7.5-7.5-7.5h-25.354c-4.143 0-7.5 3.358-7.5 7.5s3.358 7.5 7.5 7.5z"/><path d="m73.655 338.428c0-4.142-3.357-7.5-7.5-7.5h-5v-4c0-4.142-3.357-7.5-7.5-7.5s-7.5 3.358-7.5 7.5v9.5c0 5.238 4.262 9.5 9.5 9.5h10.5c4.143 0 7.5-3.358 7.5-7.5z"/><path d="m46.155 301.071c0 4.142 3.357 7.5 7.5 7.5s7.5-3.358 7.5-7.5v-20.714c0-4.142-3.357-7.5-7.5-7.5s-7.5 3.358-7.5 7.5z"/><path d="m46.155 255.5c0 4.142 3.357 7.5 7.5 7.5s7.5-3.358 7.5-7.5v-20.714c0-4.142-3.357-7.5-7.5-7.5s-7.5 3.358-7.5 7.5z"/><path d="m53.655 216.43c4.143 0 7.5-3.358 7.5-7.5v-4h5c4.143 0 7.5-3.358 7.5-7.5s-3.357-7.5-7.5-7.5h-10.5c-5.238 0-9.5 4.262-9.5 9.5v9.5c0 4.142 3.358 7.5 7.5 7.5z"/><path d="m177.711 189.93h-25.354c-4.143 0-7.5 3.358-7.5 7.5s3.357 7.5 7.5 7.5h25.354c4.143 0 7.5-3.358 7.5-7.5s-3.357-7.5-7.5-7.5z"/><path d="m121.933 189.93h-25.354c-4.143 0-7.5 3.358-7.5 7.5s3.357 7.5 7.5 7.5h25.354c4.143 0 7.5-3.358 7.5-7.5s-3.358-7.5-7.5-7.5z"/><path d="m228.136 199.43c0-5.238-4.262-9.5-9.5-9.5h-10.5c-4.143 0-7.5 3.358-7.5 7.5s3.357 7.5 7.5 7.5h5v4c0 4.142 3.357 7.5 7.5 7.5s7.5-3.358 7.5-7.5z"/><path d="m220.636 272.857c-4.143 0-7.5 3.358-7.5 7.5v20.714c0 4.142 3.357 7.5 7.5 7.5s7.5-3.358 7.5-7.5v-20.714c0-4.142-3.358-7.5-7.5-7.5z"/><path d="m228.136 234.787c0-4.142-3.357-7.5-7.5-7.5s-7.5 3.358-7.5 7.5v20.713c0 4.142 3.357 7.5 7.5 7.5s7.5-3.358 7.5-7.5z"/><path d="m384.46 243.21h-129.07c-6.341 0-11.5 5.159-11.5 11.5v103.91c0 6.341 5.159 11.5 11.5 11.5h129.07c6.341 0 11.5-5.159 11.5-11.5v-4.951l27.835 23.823c2.15 1.841 4.789 2.785 7.457 2.785 1.912 0 3.839-.485 5.612-1.471 4.247-2.363 6.515-6.995 5.775-11.799l-4.293-27.885 22.675-16.787c3.906-2.892 5.557-7.776 4.203-12.445s-5.36-7.914-10.208-8.268l-59.057-4.311v-42.601c.001-6.341-5.158-11.5-11.499-11.5zm-3.5 15v38.006l-22.088-1.612c-2.239-.167-4.403.328-6.281 1.337l-37.34-14.09c-3.577-1.347-7.576-.832-10.711 1.383l-45.65 32.392v-57.416zm0 96.91h-122.07v-21.103l52.812-37.474 35.506 13.399c.659 1.842 1.785 3.529 3.348 4.867l30.403 26.021v14.29zm46.762-26.797c-3.442 2.55-5.175 6.763-4.522 10.992l3.179 20.644-57.977-49.619 76.108 5.555z"/><path d="m137.453 234.509c-4.143 0-7.5 3.358-7.5 7.5v18.111h-18.728c-4.143 0-7.5 3.358-7.5 7.5s3.357 7.5 7.5 7.5h18.728v18.728c0 4.142 3.357 7.5 7.5 7.5s7.5-3.358 7.5-7.5v-18.728h18.111c4.143 0 7.5-3.358 7.5-7.5s-3.357-7.5-7.5-7.5h-18.111v-18.111c0-4.142-3.357-7.5-7.5-7.5z"/></g></svg>